%TF.GenerationSoftware,KiCad,Pcbnew,9.0.4*%
%TF.CreationDate,2026-01-18T18:40:26+01:00*%
%TF.ProjectId,tsuka60-pro-plate,7473756b-6136-4302-9d70-726f2d706c61,rev?*%
%TF.SameCoordinates,Original*%
%TF.FileFunction,Copper,L2,Bot*%
%TF.FilePolarity,Positive*%
%FSLAX46Y46*%
G04 Gerber Fmt 4.6, Leading zero omitted, Abs format (unit mm)*
G04 Created by KiCad (PCBNEW 9.0.4) date 2026-01-18 18:40:26*
%MOMM*%
%LPD*%
G01*
G04 APERTURE LIST*
%TA.AperFunction,EtchedComponent*%
%ADD10C,1.000000*%
%TD*%
%TA.AperFunction,ComponentPad*%
%ADD11C,2.900000*%
%TD*%
%TA.AperFunction,ConnectorPad*%
%ADD12C,5.000000*%
%TD*%
G04 APERTURE END LIST*
D10*
%TO.C,S1*%
X144606250Y-171600000D02*
X144606250Y-158600000D01*
X145106250Y-158100000D02*
X145850606Y-158100000D01*
X145850000Y-158100000D02*
X145850000Y-157599999D01*
X152100000Y-157099999D02*
X146350000Y-157099999D01*
X152600000Y-158100000D02*
X152600000Y-157599999D01*
X158106250Y-158100000D02*
X152600000Y-158100000D01*
X158106250Y-172100000D02*
X145106250Y-172100000D01*
X158606250Y-158600000D02*
X158606250Y-171600000D01*
X189850000Y-171600000D02*
X189850000Y-158600000D01*
X190350000Y-158100000D02*
X191094961Y-158100000D01*
X191093750Y-158100000D02*
X191093750Y-157599999D01*
X197343750Y-157099999D02*
X191593750Y-157099999D01*
X197843750Y-158100000D02*
X197843750Y-157599999D01*
X197843750Y-158100000D02*
X214906250Y-158100000D01*
X203350000Y-172100000D02*
X190350000Y-172100000D01*
X212875000Y-172100000D02*
X199875000Y-172100000D01*
X212875000Y-172100000D02*
X199875000Y-172100000D01*
X214906250Y-158100000D02*
X214906250Y-157599999D01*
X221156250Y-157099999D02*
X215406250Y-157099999D01*
X221656250Y-158100000D02*
X221656250Y-157599999D01*
X221656250Y-158100000D02*
X222400000Y-158100000D01*
X222400000Y-172100000D02*
X209400000Y-172100000D01*
X222900000Y-158600000D02*
X222900000Y-171600000D01*
X254143750Y-171600000D02*
X254143750Y-158600000D01*
X260150000Y-158100000D02*
X254646514Y-158101116D01*
X260150000Y-158100000D02*
X260150000Y-157599999D01*
X266400000Y-157099999D02*
X260650000Y-157099999D01*
X266900000Y-158100000D02*
X266900000Y-157599999D01*
X266900000Y-158100000D02*
X267643750Y-158100000D01*
X267643750Y-172100000D02*
X254643750Y-172100000D01*
X268143750Y-158600000D02*
X268143750Y-171600000D01*
X144609014Y-158601116D02*
G75*
G02*
X145109014Y-158101114I500086J-84D01*
G01*
X145106250Y-172100000D02*
G75*
G02*
X144606300Y-171600000I50J500000D01*
G01*
X145850000Y-157599999D02*
G75*
G02*
X146350000Y-157100000I500000J-1D01*
G01*
X152100000Y-157099999D02*
G75*
G02*
X152600001Y-157599999I0J-500001D01*
G01*
X158106250Y-158100000D02*
G75*
G02*
X158606200Y-158600000I-50J-500000D01*
G01*
X158606250Y-171600000D02*
G75*
G02*
X158106250Y-172100050I-500050J0D01*
G01*
X189852764Y-158601116D02*
G75*
G02*
X190352764Y-158101064I500136J-84D01*
G01*
X190350000Y-172100000D02*
G75*
G02*
X189850000Y-171600000I0J500000D01*
G01*
X191093750Y-157599999D02*
G75*
G02*
X191593750Y-157100050I499950J-1D01*
G01*
X197343750Y-157099999D02*
G75*
G02*
X197843801Y-157599999I-50J-500101D01*
G01*
X214906250Y-157599999D02*
G75*
G02*
X215406250Y-157099999I500001J-1D01*
G01*
X221156250Y-157099999D02*
G75*
G02*
X221656250Y-157599999I-1J-500001D01*
G01*
X222400000Y-158100000D02*
G75*
G02*
X222900000Y-158600000I-1J-500001D01*
G01*
X222900000Y-171600000D02*
G75*
G02*
X222400000Y-172100000I-500001J1D01*
G01*
X254146514Y-158601116D02*
G75*
G02*
X254646514Y-158101116I500112J-112D01*
G01*
X254643750Y-172100000D02*
G75*
G02*
X254143750Y-171600000I1J500001D01*
G01*
X260150000Y-157599999D02*
G75*
G02*
X260650000Y-157099999I500001J-1D01*
G01*
X266400000Y-157099999D02*
G75*
G02*
X266900000Y-157599999I-1J-500001D01*
G01*
X267643750Y-158100000D02*
G75*
G02*
X268143750Y-158600000I-1J-500001D01*
G01*
X268143750Y-171600000D02*
G75*
G02*
X267643750Y-172100000I-500001J1D01*
G01*
%TO.C,MX56*%
X266050000Y-152550000D02*
X266050000Y-139550000D01*
X266550000Y-139050000D02*
X279550000Y-139050000D01*
X279550000Y-153050000D02*
X266550000Y-153050000D01*
X280050000Y-139550000D02*
X280050000Y-152550000D01*
X266050000Y-139550000D02*
G75*
G02*
X266550000Y-139050000I500000J0D01*
G01*
X266550000Y-153050000D02*
G75*
G02*
X266050000Y-152550000I0J500000D01*
G01*
X279550000Y-139050000D02*
G75*
G02*
X280050000Y-139550000I2J-499998D01*
G01*
X280047236Y-152548884D02*
G75*
G02*
X279547236Y-153048884I-499998J-2D01*
G01*
%TO.C,MX73*%
X294625000Y-171600000D02*
X294625000Y-158600000D01*
X295125000Y-158100000D02*
X308125000Y-158100000D01*
X308125000Y-172100000D02*
X295125000Y-172100000D01*
X308625000Y-158600000D02*
X308625000Y-171600000D01*
X294625000Y-158600000D02*
G75*
G02*
X295125000Y-158100000I500000J0D01*
G01*
X295125000Y-172100000D02*
G75*
G02*
X294625000Y-171600000I0J500000D01*
G01*
X308125000Y-158100000D02*
G75*
G02*
X308625000Y-158600000I2J-499998D01*
G01*
X308622236Y-171598884D02*
G75*
G02*
X308122236Y-172098884I-499998J-2D01*
G01*
%TO.C,MX39*%
X223187500Y-133500000D02*
X223187500Y-120500000D01*
X223687500Y-120000000D02*
X236687500Y-120000000D01*
X236687500Y-134000000D02*
X223687500Y-134000000D01*
X237187500Y-120500000D02*
X237187500Y-133500000D01*
X223187500Y-120500000D02*
G75*
G02*
X223687500Y-120000000I500000J0D01*
G01*
X223687500Y-134000000D02*
G75*
G02*
X223187500Y-133500000I0J500000D01*
G01*
X236687500Y-120000000D02*
G75*
G02*
X237187500Y-120500000I2J-499998D01*
G01*
X237184736Y-133498884D02*
G75*
G02*
X236684736Y-133998884I-499998J-2D01*
G01*
%TO.C,MX19*%
X123175000Y-114450000D02*
X123175000Y-101450000D01*
X123675000Y-100950000D02*
X136675000Y-100950000D01*
X136675000Y-114950000D02*
X123675000Y-114950000D01*
X137175000Y-101450000D02*
X137175000Y-114450000D01*
X123175000Y-101450000D02*
G75*
G02*
X123675000Y-100950000I500000J0D01*
G01*
X123675000Y-114950000D02*
G75*
G02*
X123175000Y-114450000I0J500000D01*
G01*
X136675000Y-100950000D02*
G75*
G02*
X137175000Y-101450000I2J-499998D01*
G01*
X137172236Y-114448884D02*
G75*
G02*
X136672236Y-114948884I-499998J-2D01*
G01*
%TO.C,MX5*%
X142225000Y-95400000D02*
X142225000Y-82400000D01*
X142725000Y-81900000D02*
X155725000Y-81900000D01*
X155725000Y-95900000D02*
X142725000Y-95900000D01*
X156225000Y-82400000D02*
X156225000Y-95400000D01*
X142225000Y-82400000D02*
G75*
G02*
X142725000Y-81900000I500000J0D01*
G01*
X142725000Y-95900000D02*
G75*
G02*
X142225000Y-95400000I0J500000D01*
G01*
X155725000Y-81900000D02*
G75*
G02*
X156225000Y-82400000I2J-499998D01*
G01*
X156222236Y-95398884D02*
G75*
G02*
X155722236Y-95898884I-499998J-2D01*
G01*
%TO.C,MX16*%
X66025000Y-114450000D02*
X66025000Y-101450000D01*
X66525000Y-100950000D02*
X79525000Y-100950000D01*
X79525000Y-114950000D02*
X66525000Y-114950000D01*
X80025000Y-101450000D02*
X80025000Y-114450000D01*
X66025000Y-101450000D02*
G75*
G02*
X66525000Y-100950000I500000J0D01*
G01*
X66525000Y-114950000D02*
G75*
G02*
X66025000Y-114450000I0J500000D01*
G01*
X79525000Y-100950000D02*
G75*
G02*
X80025000Y-101450000I2J-499998D01*
G01*
X80022236Y-114448884D02*
G75*
G02*
X79522236Y-114948884I-499998J-2D01*
G01*
%TO.C,MX51*%
X151750000Y-152550000D02*
X151750000Y-139550000D01*
X152250000Y-139050000D02*
X165250000Y-139050000D01*
X165250000Y-153050000D02*
X152250000Y-153050000D01*
X165750000Y-139550000D02*
X165750000Y-152550000D01*
X151750000Y-139550000D02*
G75*
G02*
X152250000Y-139050000I500000J0D01*
G01*
X152250000Y-153050000D02*
G75*
G02*
X151750000Y-152550000I0J500000D01*
G01*
X165250000Y-139050000D02*
G75*
G02*
X165750000Y-139550000I2J-499998D01*
G01*
X165747236Y-152548884D02*
G75*
G02*
X165247236Y-153048884I-499998J-2D01*
G01*
%TO.C,MX40*%
X242237500Y-133500000D02*
X242237500Y-120500000D01*
X242737500Y-120000000D02*
X255737500Y-120000000D01*
X255737500Y-134000000D02*
X242737500Y-134000000D01*
X256237500Y-120500000D02*
X256237500Y-133500000D01*
X242237500Y-120500000D02*
G75*
G02*
X242737500Y-120000000I500000J0D01*
G01*
X242737500Y-134000000D02*
G75*
G02*
X242237500Y-133500000I0J500000D01*
G01*
X255737500Y-120000000D02*
G75*
G02*
X256237500Y-120500000I2J-499998D01*
G01*
X256234736Y-133498884D02*
G75*
G02*
X255734736Y-133998884I-499998J-2D01*
G01*
%TO.C,MX8*%
X199375000Y-95400000D02*
X199375000Y-82400000D01*
X199875000Y-81900000D02*
X212875000Y-81900000D01*
X212875000Y-95900000D02*
X199875000Y-95900000D01*
X213375000Y-82400000D02*
X213375000Y-95400000D01*
X199375000Y-82400000D02*
G75*
G02*
X199875000Y-81900000I500000J0D01*
G01*
X199875000Y-95900000D02*
G75*
G02*
X199375000Y-95400000I0J500000D01*
G01*
X212875000Y-81900000D02*
G75*
G02*
X213375000Y-82400000I2J-499998D01*
G01*
X213372236Y-95398884D02*
G75*
G02*
X212872236Y-95898884I-499998J-2D01*
G01*
%TO.C,MX7*%
X180325000Y-95400000D02*
X180325000Y-82400000D01*
X180825000Y-81900000D02*
X193825000Y-81900000D01*
X193825000Y-95900000D02*
X180825000Y-95900000D01*
X194325000Y-82400000D02*
X194325000Y-95400000D01*
X180325000Y-82400000D02*
G75*
G02*
X180825000Y-81900000I500000J0D01*
G01*
X180825000Y-95900000D02*
G75*
G02*
X180325000Y-95400000I0J500000D01*
G01*
X193825000Y-81900000D02*
G75*
G02*
X194325000Y-82400000I2J-499998D01*
G01*
X194322236Y-95398884D02*
G75*
G02*
X193822236Y-95898884I-499998J-2D01*
G01*
%TO.C,MX26*%
X256525000Y-114450000D02*
X256525000Y-101450000D01*
X257025000Y-100950000D02*
X270025000Y-100950000D01*
X270025000Y-114950000D02*
X257025000Y-114950000D01*
X270525000Y-101450000D02*
X270525000Y-114450000D01*
X256525000Y-101450000D02*
G75*
G02*
X257025000Y-100950000I500000J0D01*
G01*
X257025000Y-114950000D02*
G75*
G02*
X256525000Y-114450000I0J500000D01*
G01*
X270025000Y-100950000D02*
G75*
G02*
X270525000Y-101450000I2J-499998D01*
G01*
X270522236Y-114448884D02*
G75*
G02*
X270022236Y-114948884I-499998J-2D01*
G01*
%TO.C,MX68*%
X208900000Y-152550000D02*
X208900000Y-139550000D01*
X209400000Y-139050000D02*
X222400000Y-139050000D01*
X222400000Y-153050000D02*
X209400000Y-153050000D01*
X222900000Y-139550000D02*
X222900000Y-152550000D01*
X208900000Y-139550000D02*
G75*
G02*
X209400000Y-139050000I500000J0D01*
G01*
X209400000Y-153050000D02*
G75*
G02*
X208900000Y-152550000I0J500000D01*
G01*
X222400000Y-139050000D02*
G75*
G02*
X222900000Y-139550000I2J-499998D01*
G01*
X222897236Y-152548884D02*
G75*
G02*
X222397236Y-153048884I-499998J-2D01*
G01*
%TO.C,MX41*%
X261287500Y-133500000D02*
X261287500Y-120500000D01*
X261787500Y-120000000D02*
X274787500Y-120000000D01*
X274787500Y-134000000D02*
X261787500Y-134000000D01*
X275287500Y-120500000D02*
X275287500Y-133500000D01*
X261287500Y-120500000D02*
G75*
G02*
X261787500Y-120000000I500000J0D01*
G01*
X261787500Y-134000000D02*
G75*
G02*
X261287500Y-133500000I0J500000D01*
G01*
X274787500Y-120000000D02*
G75*
G02*
X275287500Y-120500000I2J-499998D01*
G01*
X275284736Y-133498884D02*
G75*
G02*
X274784736Y-133998884I-499998J-2D01*
G01*
%TO.C,MX48*%
X94600000Y-152550000D02*
X94600000Y-139550000D01*
X95100000Y-139050000D02*
X108100000Y-139050000D01*
X108100000Y-153050000D02*
X95100000Y-153050000D01*
X108600000Y-139550000D02*
X108600000Y-152550000D01*
X94600000Y-139550000D02*
G75*
G02*
X95100000Y-139050000I500000J0D01*
G01*
X95100000Y-153050000D02*
G75*
G02*
X94600000Y-152550000I0J500000D01*
G01*
X108100000Y-139050000D02*
G75*
G02*
X108600000Y-139550000I2J-499998D01*
G01*
X108597236Y-152548884D02*
G75*
G02*
X108097236Y-153048884I-499998J-2D01*
G01*
%TO.C,MX22*%
X180325000Y-114450000D02*
X180325000Y-101450000D01*
X180825000Y-100950000D02*
X193825000Y-100950000D01*
X193825000Y-114950000D02*
X180825000Y-114950000D01*
X194325000Y-101450000D02*
X194325000Y-114450000D01*
X180325000Y-101450000D02*
G75*
G02*
X180825000Y-100950000I500000J0D01*
G01*
X180825000Y-114950000D02*
G75*
G02*
X180325000Y-114450000I0J500000D01*
G01*
X193825000Y-100950000D02*
G75*
G02*
X194325000Y-101450000I2J-499998D01*
G01*
X194322236Y-114448884D02*
G75*
G02*
X193822236Y-114948884I-499998J-2D01*
G01*
%TO.C,MX35*%
X137462500Y-133500000D02*
X137462500Y-120500000D01*
X137962500Y-120000000D02*
X150962500Y-120000000D01*
X150962500Y-134000000D02*
X137962500Y-134000000D01*
X151462500Y-120500000D02*
X151462500Y-133500000D01*
X137462500Y-120500000D02*
G75*
G02*
X137962500Y-120000000I500000J0D01*
G01*
X137962500Y-134000000D02*
G75*
G02*
X137462500Y-133500000I0J500000D01*
G01*
X150962500Y-120000000D02*
G75*
G02*
X151462500Y-120500000I2J-499998D01*
G01*
X151459736Y-133498884D02*
G75*
G02*
X150959736Y-133998884I-499998J-2D01*
G01*
%TO.C,MX2*%
X85075000Y-95400000D02*
X85075000Y-82400000D01*
X85575000Y-81900000D02*
X98575000Y-81900000D01*
X98575000Y-95900000D02*
X85575000Y-95900000D01*
X99075000Y-82400000D02*
X99075000Y-95400000D01*
X85077764Y-82401116D02*
G75*
G02*
X85577764Y-81901116I499998J2D01*
G01*
X85575000Y-95900000D02*
G75*
G02*
X85075000Y-95400000I-2J499998D01*
G01*
X98575000Y-81900000D02*
G75*
G02*
X99075000Y-82400000I0J-500000D01*
G01*
X99075000Y-95400000D02*
G75*
G02*
X98575000Y-95900000I-500000J0D01*
G01*
%TO.C,MX66*%
X168418750Y-171600000D02*
X168418750Y-158600000D01*
X168918750Y-158100000D02*
X181918750Y-158100000D01*
X181918750Y-172100000D02*
X168918750Y-172100000D01*
X182418750Y-158600000D02*
X182418750Y-171600000D01*
X168418750Y-158600000D02*
G75*
G02*
X168918750Y-158100000I500000J0D01*
G01*
X168918750Y-172100000D02*
G75*
G02*
X168418750Y-171600000I0J500000D01*
G01*
X181918750Y-158100000D02*
G75*
G02*
X182418750Y-158600000I2J-499998D01*
G01*
X182415986Y-171598884D02*
G75*
G02*
X181915986Y-172098884I-499998J-2D01*
G01*
%TO.C,MX14*%
X313675000Y-95400000D02*
X313675000Y-82400000D01*
X314175000Y-81900000D02*
X327175000Y-81900000D01*
X327175000Y-95900000D02*
X314175000Y-95900000D01*
X327675000Y-82400000D02*
X327675000Y-95400000D01*
X313675000Y-82400000D02*
G75*
G02*
X314175000Y-81900000I500000J0D01*
G01*
X314175000Y-95900000D02*
G75*
G02*
X313675000Y-95400000I0J500000D01*
G01*
X327175000Y-81900000D02*
G75*
G02*
X327675000Y-82400000I2J-499998D01*
G01*
X327672236Y-95398884D02*
G75*
G02*
X327172236Y-95898884I-499998J-2D01*
G01*
%TO.C,MX54*%
X227950000Y-152550000D02*
X227950000Y-139550000D01*
X228450000Y-139050000D02*
X241450000Y-139050000D01*
X241450000Y-153050000D02*
X228450000Y-153050000D01*
X241950000Y-139550000D02*
X241950000Y-152550000D01*
X227950000Y-139550000D02*
G75*
G02*
X228450000Y-139050000I500000J0D01*
G01*
X228450000Y-153050000D02*
G75*
G02*
X227950000Y-152550000I0J500000D01*
G01*
X241450000Y-139050000D02*
G75*
G02*
X241950000Y-139550000I2J-499998D01*
G01*
X241947236Y-152548884D02*
G75*
G02*
X241447236Y-153048884I-499998J-2D01*
G01*
%TO.C,MX10*%
X237475000Y-95400000D02*
X237475000Y-82400000D01*
X237975000Y-81900000D02*
X250975000Y-81900000D01*
X250975000Y-95900000D02*
X237975000Y-95900000D01*
X251475000Y-82400000D02*
X251475000Y-95400000D01*
X237475000Y-82400000D02*
G75*
G02*
X237975000Y-81900000I500000J0D01*
G01*
X237975000Y-95900000D02*
G75*
G02*
X237475000Y-95400000I0J500000D01*
G01*
X250975000Y-81900000D02*
G75*
G02*
X251475000Y-82400000I2J-499998D01*
G01*
X251472236Y-95398884D02*
G75*
G02*
X250972236Y-95898884I-499998J-2D01*
G01*
%TO.C,MX20*%
X142225000Y-114450000D02*
X142225000Y-101450000D01*
X142725000Y-100950000D02*
X155725000Y-100950000D01*
X155725000Y-114950000D02*
X142725000Y-114950000D01*
X156225000Y-101450000D02*
X156225000Y-114450000D01*
X142225000Y-101450000D02*
G75*
G02*
X142725000Y-100950000I500000J0D01*
G01*
X142725000Y-114950000D02*
G75*
G02*
X142225000Y-114450000I0J500000D01*
G01*
X155725000Y-100950000D02*
G75*
G02*
X156225000Y-101450000I2J-499998D01*
G01*
X156222236Y-114448884D02*
G75*
G02*
X155722236Y-114948884I-499998J-2D01*
G01*
%TO.C,MX32_2*%
X68406250Y-133500000D02*
X68406250Y-120500000D01*
X68909014Y-120001116D02*
X86668750Y-120000000D01*
X86668750Y-134000000D02*
X68906250Y-134000000D01*
X87168750Y-120500000D02*
X87168750Y-133500000D01*
X68409014Y-120501116D02*
G75*
G02*
X68909014Y-120001116I500001J-1D01*
G01*
X68906250Y-134000000D02*
G75*
G02*
X68406250Y-133500000I1J500001D01*
G01*
X86668750Y-120000000D02*
G75*
G02*
X87168750Y-120500000I0J-500000D01*
G01*
X87168750Y-133500000D02*
G75*
G02*
X86668750Y-134000000I-500100J100D01*
G01*
%TO.C,MX42*%
X280337500Y-133500000D02*
X280337500Y-120500000D01*
X280837500Y-120000000D02*
X293837500Y-120000000D01*
X293837500Y-134000000D02*
X280837500Y-134000000D01*
X294337500Y-120500000D02*
X294337500Y-133500000D01*
X280337500Y-120500000D02*
G75*
G02*
X280837500Y-120000000I500000J0D01*
G01*
X280837500Y-134000000D02*
G75*
G02*
X280337500Y-133500000I0J500000D01*
G01*
X293837500Y-120000000D02*
G75*
G02*
X294337500Y-120500000I2J-499998D01*
G01*
X294334736Y-133498884D02*
G75*
G02*
X293834736Y-133998884I-499998J-2D01*
G01*
%TO.C,MX24*%
X218425000Y-114450000D02*
X218425000Y-101450000D01*
X218925000Y-100950000D02*
X231925000Y-100950000D01*
X231925000Y-114950000D02*
X218925000Y-114950000D01*
X232425000Y-101450000D02*
X232425000Y-114450000D01*
X218425000Y-101450000D02*
G75*
G02*
X218925000Y-100950000I500000J0D01*
G01*
X218925000Y-114950000D02*
G75*
G02*
X218425000Y-114450000I0J500000D01*
G01*
X231925000Y-100950000D02*
G75*
G02*
X232425000Y-101450000I2J-499998D01*
G01*
X232422236Y-114448884D02*
G75*
G02*
X231922236Y-114948884I-499998J-2D01*
G01*
%TO.C,MX12*%
X275575000Y-95400000D02*
X275575000Y-82400000D01*
X276075000Y-81900000D02*
X289075000Y-81900000D01*
X289075000Y-95900000D02*
X276075000Y-95900000D01*
X289575000Y-82400000D02*
X289575000Y-95400000D01*
X275575000Y-82400000D02*
G75*
G02*
X276075000Y-81900000I500000J0D01*
G01*
X276075000Y-95900000D02*
G75*
G02*
X275575000Y-95400000I0J500000D01*
G01*
X289075000Y-81900000D02*
G75*
G02*
X289575000Y-82400000I2J-499998D01*
G01*
X289572236Y-95398884D02*
G75*
G02*
X289072236Y-95898884I-499998J-2D01*
G01*
%TO.C,MX15*%
X332725000Y-95400000D02*
X332725000Y-82400000D01*
X333225000Y-81900000D02*
X346225000Y-81900000D01*
X346225000Y-95900000D02*
X333225000Y-95900000D01*
X346725000Y-82400000D02*
X346725000Y-95400000D01*
X332725000Y-82400000D02*
G75*
G02*
X333225000Y-81900000I500000J0D01*
G01*
X333225000Y-95900000D02*
G75*
G02*
X332725000Y-95400000I0J500000D01*
G01*
X346225000Y-81900000D02*
G75*
G02*
X346725000Y-82400000I2J-499998D01*
G01*
X346722236Y-95398884D02*
G75*
G02*
X346222236Y-95898884I-499998J-2D01*
G01*
%TO.C,MX50*%
X132700000Y-152550000D02*
X132700000Y-139550000D01*
X133200000Y-139050000D02*
X146200000Y-139050000D01*
X146200000Y-153050000D02*
X133200000Y-153050000D01*
X146700000Y-139550000D02*
X146700000Y-152550000D01*
X132700000Y-139550000D02*
G75*
G02*
X133200000Y-139050000I500000J0D01*
G01*
X133200000Y-153050000D02*
G75*
G02*
X132700000Y-152550000I0J500000D01*
G01*
X146200000Y-139050000D02*
G75*
G02*
X146700000Y-139550000I2J-499998D01*
G01*
X146697236Y-152548884D02*
G75*
G02*
X146197236Y-153048884I-499998J-2D01*
G01*
%TO.C,MX1*%
X66025000Y-95400000D02*
X66025000Y-82400000D01*
X66525000Y-81900000D02*
X79525000Y-81900000D01*
X79525000Y-95900000D02*
X66525000Y-95900000D01*
X80025000Y-82400000D02*
X80025000Y-95400000D01*
X66027764Y-82401116D02*
G75*
G02*
X66527764Y-81901116I499998J2D01*
G01*
X66525000Y-95900000D02*
G75*
G02*
X66025000Y-95400000I-2J499998D01*
G01*
X79525000Y-81900000D02*
G75*
G02*
X80025000Y-82400000I0J-500000D01*
G01*
X80025000Y-95400000D02*
G75*
G02*
X79525000Y-95900000I-500000J0D01*
G01*
%TO.C,MX29*%
X313675000Y-114450000D02*
X313675000Y-101450000D01*
X314175000Y-100950000D02*
X327175000Y-100950000D01*
X327175000Y-114950000D02*
X314175000Y-114950000D01*
X327675000Y-101450000D02*
X327675000Y-114450000D01*
X313675000Y-101450000D02*
G75*
G02*
X314175000Y-100950000I500000J0D01*
G01*
X314175000Y-114950000D02*
G75*
G02*
X313675000Y-114450000I0J500000D01*
G01*
X327175000Y-100950000D02*
G75*
G02*
X327675000Y-101450000I2J-499998D01*
G01*
X327672236Y-114448884D02*
G75*
G02*
X327172236Y-114948884I-499998J-2D01*
G01*
%TO.C,MX57*%
X285100000Y-152550000D02*
X285100000Y-139550000D01*
X285600000Y-139050000D02*
X298600000Y-139050000D01*
X298600000Y-153050000D02*
X285600000Y-153050000D01*
X299100000Y-139550000D02*
X299100000Y-152550000D01*
X285100000Y-139550000D02*
G75*
G02*
X285600000Y-139050000I500000J0D01*
G01*
X285600000Y-153050000D02*
G75*
G02*
X285100000Y-152550000I0J500000D01*
G01*
X298600000Y-139050000D02*
G75*
G02*
X299100000Y-139550000I2J-499998D01*
G01*
X299097236Y-152548884D02*
G75*
G02*
X298597236Y-153048884I-499998J-2D01*
G01*
%TO.C,MX18*%
X104125000Y-114450000D02*
X104125000Y-101450000D01*
X104625000Y-100950000D02*
X117625000Y-100950000D01*
X117625000Y-114950000D02*
X104625000Y-114950000D01*
X118125000Y-101450000D02*
X118125000Y-114450000D01*
X104125000Y-101450000D02*
G75*
G02*
X104625000Y-100950000I500000J0D01*
G01*
X104625000Y-114950000D02*
G75*
G02*
X104125000Y-114450000I0J500000D01*
G01*
X117625000Y-100950000D02*
G75*
G02*
X118125000Y-101450000I2J-499998D01*
G01*
X118122236Y-114448884D02*
G75*
G02*
X117622236Y-114948884I-499998J-2D01*
G01*
%TO.C,MX21*%
X161275000Y-114450000D02*
X161275000Y-101450000D01*
X161775000Y-100950000D02*
X174775000Y-100950000D01*
X174775000Y-114950000D02*
X161775000Y-114950000D01*
X175275000Y-101450000D02*
X175275000Y-114450000D01*
X161275000Y-101450000D02*
G75*
G02*
X161775000Y-100950000I500000J0D01*
G01*
X161775000Y-114950000D02*
G75*
G02*
X161275000Y-114450000I0J500000D01*
G01*
X174775000Y-100950000D02*
G75*
G02*
X175275000Y-101450000I2J-499998D01*
G01*
X175272236Y-114448884D02*
G75*
G02*
X174772236Y-114948884I-499998J-2D01*
G01*
%TO.C,MX59*%
X327962500Y-152550000D02*
X327962500Y-139550000D01*
X328462500Y-139050000D02*
X341462500Y-139050000D01*
X341462500Y-153050000D02*
X328462500Y-153050000D01*
X341962500Y-139550000D02*
X341962500Y-152550000D01*
X327962500Y-139550000D02*
G75*
G02*
X328462500Y-139050000I500000J0D01*
G01*
X328462500Y-153050000D02*
G75*
G02*
X327962500Y-152550000I0J500000D01*
G01*
X341462500Y-139050000D02*
G75*
G02*
X341962500Y-139550000I2J-499998D01*
G01*
X341959736Y-152548884D02*
G75*
G02*
X341459736Y-153048884I-499998J-2D01*
G01*
%TO.C,MX43*%
X299387500Y-133500000D02*
X299387500Y-120500000D01*
X299887500Y-120000000D02*
X312887500Y-120000000D01*
X312887500Y-134000000D02*
X299887500Y-134000000D01*
X313387500Y-120500000D02*
X313387500Y-133500000D01*
X299387500Y-120500000D02*
G75*
G02*
X299887500Y-120000000I500000J0D01*
G01*
X299887500Y-134000000D02*
G75*
G02*
X299387500Y-133500000I0J500000D01*
G01*
X312887500Y-120000000D02*
G75*
G02*
X313387500Y-120500000I2J-499998D01*
G01*
X313384736Y-133498884D02*
G75*
G02*
X312884736Y-133998884I-499998J-2D01*
G01*
%TO.C,MX75*%
X332725000Y-171600000D02*
X332725000Y-158600000D01*
X333225000Y-158100000D02*
X346225000Y-158100000D01*
X346225000Y-172100000D02*
X333225000Y-172100000D01*
X346725000Y-158600000D02*
X346725000Y-171600000D01*
X332725000Y-158600000D02*
G75*
G02*
X333225000Y-158100000I500000J0D01*
G01*
X333225000Y-172100000D02*
G75*
G02*
X332725000Y-171600000I0J500000D01*
G01*
X346225000Y-158100000D02*
G75*
G02*
X346725000Y-158600000I2J-499998D01*
G01*
X346722236Y-171598884D02*
G75*
G02*
X346222236Y-172098884I-499998J-2D01*
G01*
%TO.C,MX38*%
X199375000Y-133500000D02*
X199375000Y-120500000D01*
X199875000Y-120000000D02*
X212875000Y-120000000D01*
X212875000Y-134000000D02*
X199875000Y-134000000D01*
X213375000Y-120500000D02*
X213375000Y-133500000D01*
X199375000Y-120500000D02*
G75*
G02*
X199875000Y-120000000I500000J0D01*
G01*
X199875000Y-134000000D02*
G75*
G02*
X199375000Y-133500000I0J500000D01*
G01*
X212875000Y-120000000D02*
G75*
G02*
X213375000Y-120500000I2J-499998D01*
G01*
X213372236Y-133498884D02*
G75*
G02*
X212872236Y-133998884I-499998J-2D01*
G01*
%TO.C,MX36*%
X156512500Y-133500000D02*
X156512500Y-120500000D01*
X157012500Y-120000000D02*
X170012500Y-120000000D01*
X170012500Y-134000000D02*
X157012500Y-134000000D01*
X170512500Y-120500000D02*
X170512500Y-133500000D01*
X156512500Y-120500000D02*
G75*
G02*
X157012500Y-120000000I500000J0D01*
G01*
X157012500Y-134000000D02*
G75*
G02*
X156512500Y-133500000I0J500000D01*
G01*
X170012500Y-120000000D02*
G75*
G02*
X170512500Y-120500000I2J-499998D01*
G01*
X170509736Y-133498884D02*
G75*
G02*
X170009736Y-133998884I-499998J-2D01*
G01*
%TO.C,MX11*%
X256525000Y-95400000D02*
X256525000Y-82400000D01*
X257025000Y-81900000D02*
X270025000Y-81900000D01*
X270025000Y-95900000D02*
X257025000Y-95900000D01*
X270525000Y-82400000D02*
X270525000Y-95400000D01*
X256525000Y-82400000D02*
G75*
G02*
X257025000Y-81900000I500000J0D01*
G01*
X257025000Y-95900000D02*
G75*
G02*
X256525000Y-95400000I0J500000D01*
G01*
X270025000Y-81900000D02*
G75*
G02*
X270525000Y-82400000I2J-499998D01*
G01*
X270522236Y-95398884D02*
G75*
G02*
X270022236Y-95898884I-499998J-2D01*
G01*
%TO.C,MX61*%
X66025000Y-171600000D02*
X66025000Y-158600000D01*
X66525000Y-158100000D02*
X79525000Y-158100000D01*
X79525000Y-172100000D02*
X66525000Y-172100000D01*
X80025000Y-158600000D02*
X80025000Y-171600000D01*
X66025000Y-158600000D02*
G75*
G02*
X66525000Y-158100000I500000J0D01*
G01*
X66525000Y-172100000D02*
G75*
G02*
X66025000Y-171600000I0J500000D01*
G01*
X79525000Y-158100000D02*
G75*
G02*
X80025000Y-158600000I2J-499998D01*
G01*
X80022236Y-171598884D02*
G75*
G02*
X79522236Y-172098884I-499998J-2D01*
G01*
%TO.C,MX27*%
X275575000Y-114450000D02*
X275575000Y-101450000D01*
X276075000Y-100950000D02*
X289075000Y-100950000D01*
X289075000Y-114950000D02*
X276075000Y-114950000D01*
X289575000Y-101450000D02*
X289575000Y-114450000D01*
X275575000Y-101450000D02*
G75*
G02*
X276075000Y-100950000I500000J0D01*
G01*
X276075000Y-114950000D02*
G75*
G02*
X275575000Y-114450000I0J500000D01*
G01*
X289075000Y-100950000D02*
G75*
G02*
X289575000Y-101450000I2J-499998D01*
G01*
X289572236Y-114448884D02*
G75*
G02*
X289072236Y-114948884I-499998J-2D01*
G01*
%TO.C,MX47*%
X70787500Y-152550000D02*
X70787500Y-139550000D01*
X71287500Y-139050000D02*
X84287500Y-139050000D01*
X84287500Y-153050000D02*
X71287500Y-153050000D01*
X84787500Y-139550000D02*
X84787500Y-152550000D01*
X70787500Y-139550000D02*
G75*
G02*
X71287500Y-139050000I500000J0D01*
G01*
X71287500Y-153050000D02*
G75*
G02*
X70787500Y-152550000I0J500000D01*
G01*
X84287500Y-139050000D02*
G75*
G02*
X84787500Y-139550000I2J-499998D01*
G01*
X84784736Y-152548884D02*
G75*
G02*
X84284736Y-153048884I-499998J-2D01*
G01*
%TO.C,MX3*%
X104125000Y-95400000D02*
X104125000Y-82400000D01*
X104625000Y-81900000D02*
X117625000Y-81900000D01*
X117625000Y-95900000D02*
X104625000Y-95900000D01*
X118125000Y-82400000D02*
X118125000Y-95400000D01*
X104125000Y-82400000D02*
G75*
G02*
X104625000Y-81900000I500000J0D01*
G01*
X104625000Y-95900000D02*
G75*
G02*
X104125000Y-95400000I0J500000D01*
G01*
X117625000Y-81900000D02*
G75*
G02*
X118125000Y-82400000I2J-499998D01*
G01*
X118122236Y-95398884D02*
G75*
G02*
X117622236Y-95898884I-499998J-2D01*
G01*
%TO.C,MX33*%
X99362500Y-133500000D02*
X99362500Y-120500000D01*
X99862500Y-120000000D02*
X112862500Y-120000000D01*
X112862500Y-134000000D02*
X99862500Y-134000000D01*
X113362500Y-120500000D02*
X113362500Y-133500000D01*
X99362500Y-120500000D02*
G75*
G02*
X99862500Y-120000000I500000J0D01*
G01*
X99862500Y-134000000D02*
G75*
G02*
X99362500Y-133500000I0J500000D01*
G01*
X112862500Y-120000000D02*
G75*
G02*
X113362500Y-120500000I2J-499998D01*
G01*
X113359736Y-133498884D02*
G75*
G02*
X112859736Y-133998884I-499998J-2D01*
G01*
%TO.C,MX49*%
X113650000Y-152550000D02*
X113650000Y-139550000D01*
X114150000Y-139050000D02*
X127150000Y-139050000D01*
X127150000Y-153050000D02*
X114150000Y-153050000D01*
X127650000Y-139550000D02*
X127650000Y-152550000D01*
X113650000Y-139550000D02*
G75*
G02*
X114150000Y-139050000I500000J0D01*
G01*
X114150000Y-153050000D02*
G75*
G02*
X113650000Y-152550000I0J500000D01*
G01*
X127150000Y-139050000D02*
G75*
G02*
X127650000Y-139550000I2J-499998D01*
G01*
X127647236Y-152548884D02*
G75*
G02*
X127147236Y-153048884I-499998J-2D01*
G01*
%TO.C,MX64*%
X123175000Y-171600000D02*
X123175000Y-158600000D01*
X123675000Y-158100000D02*
X136675000Y-158100000D01*
X136675000Y-172100000D02*
X123675000Y-172100000D01*
X137175000Y-158600000D02*
X137175000Y-171600000D01*
X123175000Y-158600000D02*
G75*
G02*
X123675000Y-158100000I500000J0D01*
G01*
X123675000Y-172100000D02*
G75*
G02*
X123175000Y-171600000I0J500000D01*
G01*
X136675000Y-158100000D02*
G75*
G02*
X137175000Y-158600000I2J-499998D01*
G01*
X137172236Y-171598884D02*
G75*
G02*
X136672236Y-172098884I-499998J-2D01*
G01*
%TO.C,MX23*%
X199375000Y-114450000D02*
X199375000Y-101450000D01*
X199875000Y-100950000D02*
X212875000Y-100950000D01*
X212875000Y-114950000D02*
X199875000Y-114950000D01*
X213375000Y-101450000D02*
X213375000Y-114450000D01*
X199375000Y-101450000D02*
G75*
G02*
X199875000Y-100950000I500000J0D01*
G01*
X199875000Y-114950000D02*
G75*
G02*
X199375000Y-114450000I0J500000D01*
G01*
X212875000Y-100950000D02*
G75*
G02*
X213375000Y-101450000I2J-499998D01*
G01*
X213372236Y-114448884D02*
G75*
G02*
X212872236Y-114948884I-499998J-2D01*
G01*
%TO.C,MX13*%
X294625000Y-95400000D02*
X294625000Y-82400000D01*
X295125000Y-81900000D02*
X308125000Y-81900000D01*
X308125000Y-95900000D02*
X295125000Y-95900000D01*
X308625000Y-82400000D02*
X308625000Y-95400000D01*
X294625000Y-82400000D02*
G75*
G02*
X295125000Y-81900000I500000J0D01*
G01*
X295125000Y-95900000D02*
G75*
G02*
X294625000Y-95400000I0J500000D01*
G01*
X308125000Y-81900000D02*
G75*
G02*
X308625000Y-82400000I2J-499998D01*
G01*
X308622236Y-95398884D02*
G75*
G02*
X308122236Y-95898884I-499998J-2D01*
G01*
%TO.C,MX9*%
X218425000Y-95400000D02*
X218425000Y-82400000D01*
X218925000Y-81900000D02*
X231925000Y-81900000D01*
X231925000Y-95900000D02*
X218925000Y-95900000D01*
X232425000Y-82400000D02*
X232425000Y-95400000D01*
X218425000Y-82400000D02*
G75*
G02*
X218925000Y-81900000I500000J0D01*
G01*
X218925000Y-95900000D02*
G75*
G02*
X218425000Y-95400000I0J500000D01*
G01*
X231925000Y-81900000D02*
G75*
G02*
X232425000Y-82400000I2J-499998D01*
G01*
X232422236Y-95398884D02*
G75*
G02*
X231922236Y-95898884I-499998J-2D01*
G01*
%TO.C,MX34*%
X118412500Y-133500000D02*
X118412500Y-120500000D01*
X118912500Y-120000000D02*
X131912500Y-120000000D01*
X131912500Y-134000000D02*
X118912500Y-134000000D01*
X132412500Y-120500000D02*
X132412500Y-133500000D01*
X118412500Y-120500000D02*
G75*
G02*
X118912500Y-120000000I500000J0D01*
G01*
X118912500Y-134000000D02*
G75*
G02*
X118412500Y-133500000I0J500000D01*
G01*
X131912500Y-120000000D02*
G75*
G02*
X132412500Y-120500000I2J-499998D01*
G01*
X132409736Y-133498884D02*
G75*
G02*
X131909736Y-133998884I-499998J-2D01*
G01*
%TO.C,MX63*%
X104125000Y-171600000D02*
X104125000Y-158600000D01*
X104625000Y-158100000D02*
X117625000Y-158100000D01*
X117625000Y-172100000D02*
X104625000Y-172100000D01*
X118125000Y-158600000D02*
X118125000Y-171600000D01*
X104125000Y-158600000D02*
G75*
G02*
X104625000Y-158100000I500000J0D01*
G01*
X104625000Y-172100000D02*
G75*
G02*
X104125000Y-171600000I0J500000D01*
G01*
X117625000Y-158100000D02*
G75*
G02*
X118125000Y-158600000I2J-499998D01*
G01*
X118122236Y-171598884D02*
G75*
G02*
X117622236Y-172098884I-499998J-2D01*
G01*
%TO.C,MX53*%
X189850000Y-152550000D02*
X189850000Y-139550000D01*
X190350000Y-139050000D02*
X203350000Y-139050000D01*
X203350000Y-153050000D02*
X190350000Y-153050000D01*
X203850000Y-139550000D02*
X203850000Y-152550000D01*
X189850000Y-139550000D02*
G75*
G02*
X190350000Y-139050000I500000J0D01*
G01*
X190350000Y-153050000D02*
G75*
G02*
X189850000Y-152550000I0J500000D01*
G01*
X203350000Y-139050000D02*
G75*
G02*
X203850000Y-139550000I2J-499998D01*
G01*
X203847236Y-152548884D02*
G75*
G02*
X203347236Y-153048884I-499998J-2D01*
G01*
%TO.C,MX74*%
X313675000Y-171600000D02*
X313675000Y-158600000D01*
X314175000Y-158100000D02*
X327175000Y-158100000D01*
X327175000Y-172100000D02*
X314175000Y-172100000D01*
X327675000Y-158600000D02*
X327675000Y-171600000D01*
X313675000Y-158600000D02*
G75*
G02*
X314175000Y-158100000I500000J0D01*
G01*
X314175000Y-172100000D02*
G75*
G02*
X313675000Y-171600000I0J500000D01*
G01*
X327175000Y-158100000D02*
G75*
G02*
X327675000Y-158600000I2J-499998D01*
G01*
X327672236Y-171598884D02*
G75*
G02*
X327172236Y-172098884I-499998J-2D01*
G01*
%TO.C,MX4*%
X123175000Y-95400000D02*
X123175000Y-82400000D01*
X123675000Y-81900000D02*
X136675000Y-81900000D01*
X136675000Y-95900000D02*
X123675000Y-95900000D01*
X137175000Y-82400000D02*
X137175000Y-95400000D01*
X123175000Y-82400000D02*
G75*
G02*
X123675000Y-81900000I500000J0D01*
G01*
X123675000Y-95900000D02*
G75*
G02*
X123175000Y-95400000I0J500000D01*
G01*
X136675000Y-81900000D02*
G75*
G02*
X137175000Y-82400000I2J-499998D01*
G01*
X137172236Y-95398884D02*
G75*
G02*
X136672236Y-95898884I-499998J-2D01*
G01*
%TO.C,MX52*%
X170800000Y-152550000D02*
X170800000Y-139550000D01*
X171300000Y-139050000D02*
X184300000Y-139050000D01*
X184300000Y-153050000D02*
X171300000Y-153050000D01*
X184800000Y-139550000D02*
X184800000Y-152550000D01*
X170800000Y-139550000D02*
G75*
G02*
X171300000Y-139050000I500000J0D01*
G01*
X171300000Y-153050000D02*
G75*
G02*
X170800000Y-152550000I0J500000D01*
G01*
X184300000Y-139050000D02*
G75*
G02*
X184800000Y-139550000I2J-499998D01*
G01*
X184797236Y-152548884D02*
G75*
G02*
X184297236Y-153048884I-499998J-2D01*
G01*
%TO.C,MX55*%
X247000000Y-152550000D02*
X247000000Y-139550000D01*
X247500000Y-139050000D02*
X260500000Y-139050000D01*
X260500000Y-153050000D02*
X247500000Y-153050000D01*
X261000000Y-139550000D02*
X261000000Y-152550000D01*
X247000000Y-139550000D02*
G75*
G02*
X247500000Y-139050000I500000J0D01*
G01*
X247500000Y-153050000D02*
G75*
G02*
X247000000Y-152550000I0J500000D01*
G01*
X260500000Y-139050000D02*
G75*
G02*
X261000000Y-139550000I2J-499998D01*
G01*
X260997236Y-152548884D02*
G75*
G02*
X260497236Y-153048884I-499998J-2D01*
G01*
%TO.C,MX25*%
X237475000Y-114450000D02*
X237475000Y-101450000D01*
X237975000Y-100950000D02*
X250975000Y-100950000D01*
X250975000Y-114950000D02*
X237975000Y-114950000D01*
X251475000Y-101450000D02*
X251475000Y-114450000D01*
X237475000Y-101450000D02*
G75*
G02*
X237975000Y-100950000I500000J0D01*
G01*
X237975000Y-114950000D02*
G75*
G02*
X237475000Y-114450000I0J500000D01*
G01*
X250975000Y-100950000D02*
G75*
G02*
X251475000Y-101450000I2J-499998D01*
G01*
X251472236Y-114448884D02*
G75*
G02*
X250972236Y-114948884I-499998J-2D01*
G01*
%TO.C,MX72*%
X275575000Y-171600000D02*
X275575000Y-158600000D01*
X276075000Y-158100000D02*
X289075000Y-158100000D01*
X289075000Y-172100000D02*
X276075000Y-172100000D01*
X289575000Y-158600000D02*
X289575000Y-171600000D01*
X275575000Y-158600000D02*
G75*
G02*
X276075000Y-158100000I500000J0D01*
G01*
X276075000Y-172100000D02*
G75*
G02*
X275575000Y-171600000I0J500000D01*
G01*
X289075000Y-158100000D02*
G75*
G02*
X289575000Y-158600000I2J-499998D01*
G01*
X289572236Y-171598884D02*
G75*
G02*
X289072236Y-172098884I-499998J-2D01*
G01*
%TO.C,MX30*%
X332725000Y-114450000D02*
X332725000Y-101450000D01*
X333225000Y-100950000D02*
X346225000Y-100950000D01*
X346225000Y-114950000D02*
X333225000Y-114950000D01*
X346725000Y-101450000D02*
X346725000Y-114450000D01*
X332725000Y-101450000D02*
G75*
G02*
X333225000Y-100950000I500000J0D01*
G01*
X333225000Y-114950000D02*
G75*
G02*
X332725000Y-114450000I0J500000D01*
G01*
X346225000Y-100950000D02*
G75*
G02*
X346725000Y-101450000I2J-499998D01*
G01*
X346722236Y-114448884D02*
G75*
G02*
X346222236Y-114948884I-499998J-2D01*
G01*
%TO.C,MX58*%
X304150000Y-152550000D02*
X304150000Y-139550000D01*
X304650000Y-139050000D02*
X317650000Y-139050000D01*
X317650000Y-153050000D02*
X304650000Y-153050000D01*
X318150000Y-139550000D02*
X318150000Y-152550000D01*
X304150000Y-139550000D02*
G75*
G02*
X304650000Y-139050000I500000J0D01*
G01*
X304650000Y-153050000D02*
G75*
G02*
X304150000Y-152550000I0J500000D01*
G01*
X317650000Y-139050000D02*
G75*
G02*
X318150000Y-139550000I2J-499998D01*
G01*
X318147236Y-152548884D02*
G75*
G02*
X317647236Y-153048884I-499998J-2D01*
G01*
%TO.C,MX17*%
X85075000Y-114450000D02*
X85075000Y-101450000D01*
X85575000Y-100950000D02*
X98575000Y-100950000D01*
X98575000Y-114950000D02*
X85575000Y-114950000D01*
X99075000Y-101450000D02*
X99075000Y-114450000D01*
X85075000Y-101450000D02*
G75*
G02*
X85575000Y-100950000I500000J0D01*
G01*
X85575000Y-114950000D02*
G75*
G02*
X85075000Y-114450000I0J500000D01*
G01*
X98575000Y-100950000D02*
G75*
G02*
X99075000Y-101450000I2J-499998D01*
G01*
X99072236Y-114448884D02*
G75*
G02*
X98572236Y-114948884I-499998J-2D01*
G01*
%TO.C,MX70*%
X230331250Y-171600000D02*
X230331250Y-158600000D01*
X230831250Y-158100000D02*
X243831250Y-158100000D01*
X243831250Y-172100000D02*
X230831250Y-172100000D01*
X244331250Y-158600000D02*
X244331250Y-171600000D01*
X230331250Y-158600000D02*
G75*
G02*
X230831250Y-158100000I500000J0D01*
G01*
X230831250Y-172100000D02*
G75*
G02*
X230331250Y-171600000I0J500000D01*
G01*
X243831250Y-158100000D02*
G75*
G02*
X244331250Y-158600000I2J-499998D01*
G01*
X244328486Y-171598884D02*
G75*
G02*
X243828486Y-172098884I-499998J-2D01*
G01*
%TO.C,MX28*%
X294625000Y-114450000D02*
X294625000Y-101450000D01*
X295125000Y-100950000D02*
X308125000Y-100950000D01*
X308125000Y-114950000D02*
X295125000Y-114950000D01*
X308625000Y-101450000D02*
X308625000Y-114450000D01*
X294625000Y-101450000D02*
G75*
G02*
X295125000Y-100950000I500000J0D01*
G01*
X295125000Y-114950000D02*
G75*
G02*
X294625000Y-114450000I0J500000D01*
G01*
X308125000Y-100950000D02*
G75*
G02*
X308625000Y-101450000I2J-499998D01*
G01*
X308622236Y-114448884D02*
G75*
G02*
X308122236Y-114948884I-499998J-2D01*
G01*
%TO.C,MX37*%
X175562500Y-133500000D02*
X175562500Y-120500000D01*
X176062500Y-120000000D02*
X189062500Y-120000000D01*
X189062500Y-134000000D02*
X176062500Y-134000000D01*
X189562500Y-120500000D02*
X189562500Y-133500000D01*
X175562500Y-120500000D02*
G75*
G02*
X176062500Y-120000000I500000J0D01*
G01*
X176062500Y-134000000D02*
G75*
G02*
X175562500Y-133500000I0J500000D01*
G01*
X189062500Y-120000000D02*
G75*
G02*
X189562500Y-120500000I2J-499998D01*
G01*
X189559736Y-133498884D02*
G75*
G02*
X189059736Y-133998884I-499998J-2D01*
G01*
%TO.C,MX44_2*%
X320818750Y-133437500D02*
X320818750Y-120437500D01*
X321321514Y-119938616D02*
X339081250Y-119937500D01*
X339081250Y-133937500D02*
X321318750Y-133937500D01*
X339581250Y-120437500D02*
X339581250Y-133437500D01*
X320821514Y-120438616D02*
G75*
G02*
X321321514Y-119938616I500001J-1D01*
G01*
X321318750Y-133937500D02*
G75*
G02*
X320818750Y-133437500I1J500001D01*
G01*
X339081250Y-119937500D02*
G75*
G02*
X339581250Y-120437500I0J-500000D01*
G01*
X339581250Y-133437500D02*
G75*
G02*
X339081250Y-133937500I-500100J100D01*
G01*
%TO.C,MX62*%
X85075000Y-171600000D02*
X85075000Y-158600000D01*
X85575000Y-158100000D02*
X98575000Y-158100000D01*
X98575000Y-172100000D02*
X85575000Y-172100000D01*
X99075000Y-158600000D02*
X99075000Y-171600000D01*
X85075000Y-158600000D02*
G75*
G02*
X85575000Y-158100000I500000J0D01*
G01*
X85575000Y-172100000D02*
G75*
G02*
X85075000Y-171600000I0J500000D01*
G01*
X98575000Y-158100000D02*
G75*
G02*
X99075000Y-158600000I2J-499998D01*
G01*
X99072236Y-171598884D02*
G75*
G02*
X98572236Y-172098884I-499998J-2D01*
G01*
%TO.C,MX6*%
X161275000Y-95400000D02*
X161275000Y-82400000D01*
X161775000Y-81900000D02*
X174775000Y-81900000D01*
X174775000Y-95900000D02*
X161775000Y-95900000D01*
X175275000Y-82400000D02*
X175275000Y-95400000D01*
X161275000Y-82400000D02*
G75*
G02*
X161775000Y-81900000I500000J0D01*
G01*
X161775000Y-95900000D02*
G75*
G02*
X161275000Y-95400000I0J500000D01*
G01*
X174775000Y-81900000D02*
G75*
G02*
X175275000Y-82400000I2J-499998D01*
G01*
X175272236Y-95398884D02*
G75*
G02*
X174772236Y-95898884I-499998J-2D01*
G01*
%TD*%
D11*
%TO.P,H1,1*%
%TO.N,N/C*%
X120650000Y-98425000D03*
D12*
X120650000Y-98425000D03*
%TD*%
D11*
%TO.P,H2,1*%
%TO.N,N/C*%
X206375000Y-98425000D03*
D12*
X206375000Y-98425000D03*
%TD*%
D11*
%TO.P,H5,1*%
%TO.N,N/C*%
X206375000Y-155575000D03*
D12*
X206375000Y-155575000D03*
%TD*%
D11*
%TO.P,H6,1*%
%TO.N,N/C*%
X292100000Y-155575000D03*
D12*
X292100000Y-155575000D03*
%TD*%
D11*
%TO.P,H4,1*%
%TO.N,N/C*%
X120650000Y-155575000D03*
D12*
X120650000Y-155575000D03*
%TD*%
D11*
%TO.P,H3,1*%
%TO.N,N/C*%
X292100000Y-98425000D03*
D12*
X292100000Y-98425000D03*
%TD*%
M02*
